{
    "asset" : {
        "copyright" : "Benji R. Ellis",
        "generator" : "Khronos glTF Blender I/O v1.6.16",
        "version" : "2.0"
    },
    "scene" : 0,
    "scenes" : [
        {
            "name" : "Scene",
            "nodes" : [
                0,
                1,
                12
            ]
        }
    ],
    "nodes" : [
        {
            "name" : "Light",
            "rotation" : [
                0.16907575726509094,
                0.7558803558349609,
                -0.27217137813568115,
                0.570947527885437
            ],
            "translation" : [
                4.076245307922363,
                5.903861999511719,
                -1.0054539442062378
            ]
        },
        {
            "name" : "Camera",
            "rotation" : [
                0.483536034822464,
                0.33687159419059753,
                -0.20870360732078552,
                0.7804827094078064
            ],
            "translation" : [
                7.358891487121582,
                4.958309173583984,
                6.925790786743164
            ]
        },
        {
            "mesh" : 0,
            "name" : "Bars"
        },
        {
            "mesh" : 1,
            "name" : "Bars-rimlight"
        },
        {
            "mesh" : 2,
            "name" : "Fire-floor"
        },
        {
            "mesh" : 3,
            "name" : "Fire"
        },
        {
            "mesh" : 4,
            "name" : "Holder"
        },
        {
            "mesh" : 5,
            "name" : "Holder1"
        },
        {
            "mesh" : 6,
            "name" : "Logs"
        },
        {
            "mesh" : 7,
            "name" : "Smoke"
        },
        {
            "children" : [
                5,
                6,
                7,
                8,
                9
            ],
            "name" : "Fire.001"
        },
        {
            "children" : [
                2,
                3,
                4,
                10
            ],
            "name" : "Root"
        },
        {
            "children" : [
                11
            ],
            "name" : "unit_conversion_scaling",
            "translation" : [
                -0.19534412026405334,
                -0.7525898814201355,
                0.448252409696579
            ]
        }
    ],
    "meshes" : [
        {
            "name" : "Bars_mesh",
            "primitives" : [
                {
                    "attributes" : {
                        "POSITION" : 0,
                        "NORMAL" : 1,
                        "COLOR_0" : 2
                    },
                    "indices" : 3
                }
            ]
        },
        {
            "name" : "Bars-rimlight_mesh",
            "primitives" : [
                {
                    "attributes" : {
                        "POSITION" : 4,
                        "NORMAL" : 5,
                        "COLOR_0" : 6
                    },
                    "indices" : 7
                }
            ]
        },
        {
            "name" : "Fire-floor_mesh",
            "primitives" : [
                {
                    "attributes" : {
                        "POSITION" : 8,
                        "NORMAL" : 9,
                        "COLOR_0" : 10
                    },
                    "indices" : 11
                }
            ]
        },
        {
            "name" : "Fire_mesh",
            "primitives" : [
                {
                    "attributes" : {
                        "POSITION" : 12,
                        "NORMAL" : 13,
                        "COLOR_0" : 14
                    },
                    "indices" : 15
                }
            ]
        },
        {
            "name" : "Holder_mesh",
            "primitives" : [
                {
                    "attributes" : {
                        "POSITION" : 16,
                        "NORMAL" : 17,
                        "COLOR_0" : 18
                    },
                    "indices" : 19
                }
            ]
        },
        {
            "name" : "Holder1_mesh",
            "primitives" : [
                {
                    "attributes" : {
                        "POSITION" : 20,
                        "NORMAL" : 21,
                        "COLOR_0" : 22
                    },
                    "indices" : 19
                }
            ]
        },
        {
            "name" : "Logs_mesh",
            "primitives" : [
                {
                    "attributes" : {
                        "POSITION" : 23,
                        "NORMAL" : 24,
                        "COLOR_0" : 25
                    },
                    "indices" : 26
                }
            ]
        },
        {
            "name" : "Smoke_mesh",
            "primitives" : [
                {
                    "attributes" : {
                        "POSITION" : 27,
                        "NORMAL" : 28,
                        "COLOR_0" : 29
                    },
                    "indices" : 30
                }
            ]
        }
    ],
    "accessors" : [
        {
            "bufferView" : 0,
            "componentType" : 5126,
            "count" : 8288,
            "max" : [
                0.5202904939651489,
                1.4457534551620483,
                -0.04462490975856781
            ],
            "min" : [
                -0.1237795352935791,
                0.9759539365768433,
                -0.10576249659061432
            ],
            "type" : "VEC3"
        },
        {
            "bufferView" : 1,
            "componentType" : 5126,
            "count" : 8288,
            "type" : "VEC3"
        },
        {
            "bufferView" : 2,
            "componentType" : 5123,
            "count" : 8288,
            "normalized" : true,
            "type" : "VEC4"
        },
        {
            "bufferView" : 3,
            "componentType" : 5123,
            "count" : 42630,
            "type" : "SCALAR"
        },
        {
            "bufferView" : 4,
            "componentType" : 5126,
            "count" : 8288,
            "max" : [
                0.5202904939651489,
                1.4493577480316162,
                -0.05269406735897064
            ],
            "min" : [
                -0.1237795352935791,
                0.9795582294464111,
                -0.11383165419101715
            ],
            "type" : "VEC3"
        },
        {
            "bufferView" : 5,
            "componentType" : 5126,
            "count" : 8288,
            "type" : "VEC3"
        },
        {
            "bufferView" : 6,
            "componentType" : 5123,
            "count" : 8288,
            "normalized" : true,
            "type" : "VEC4"
        },
        {
            "bufferView" : 7,
            "componentType" : 5123,
            "count" : 42630,
            "type" : "SCALAR"
        },
        {
            "bufferView" : 8,
            "componentType" : 5126,
            "count" : 1440,
            "max" : [
                0.8129594326019287,
                1.013298749923706,
                -0.014549434185028076
            ],
            "min" : [
                -0.4187149405479431,
                0.8736979961395264,
                -0.8362728357315063
            ],
            "type" : "VEC3"
        },
        {
            "bufferView" : 9,
            "componentType" : 5126,
            "count" : 1440,
            "type" : "VEC3"
        },
        {
            "bufferView" : 10,
            "componentType" : 5123,
            "count" : 1440,
            "normalized" : true,
            "type" : "VEC4"
        },
        {
            "bufferView" : 11,
            "componentType" : 5123,
            "count" : 5760,
            "type" : "SCALAR"
        },
        {
            "bufferView" : 12,
            "componentType" : 5126,
            "count" : 5248,
            "max" : [
                0.3773590326309204,
                2.2121243476867676,
                -0.19565267860889435
            ],
            "min" : [
                0.014990364201366901,
                1.0785841941833496,
                -0.5207804441452026
            ],
            "type" : "VEC3"
        },
        {
            "bufferView" : 13,
            "componentType" : 5126,
            "count" : 5248,
            "type" : "VEC3"
        },
        {
            "bufferView" : 14,
            "componentType" : 5123,
            "count" : 5248,
            "normalized" : true,
            "type" : "VEC4"
        },
        {
            "bufferView" : 15,
            "componentType" : 5123,
            "count" : 25452,
            "type" : "SCALAR"
        },
        {
            "bufferView" : 16,
            "componentType" : 5126,
            "count" : 11952,
            "max" : [
                0.34847569465637207,
                1.1745095252990723,
                -0.2733755111694336
            ],
            "min" : [
                0.04415915906429291,
                1.002604603767395,
                -0.5881227254867554
            ],
            "type" : "VEC3"
        },
        {
            "bufferView" : 17,
            "componentType" : 5126,
            "count" : 11952,
            "type" : "VEC3"
        },
        {
            "bufferView" : 18,
            "componentType" : 5123,
            "count" : 11952,
            "normalized" : true,
            "type" : "VEC4"
        },
        {
            "bufferView" : 19,
            "componentType" : 5123,
            "count" : 59346,
            "type" : "SCALAR"
        },
        {
            "bufferView" : 20,
            "componentType" : 5126,
            "count" : 11952,
            "max" : [
                0.3521775007247925,
                1.1745095252990723,
                -0.2733755111694336
            ],
            "min" : [
                0.04786095768213272,
                1.002604603767395,
                -0.5881227254867554
            ],
            "type" : "VEC3"
        },
        {
            "bufferView" : 21,
            "componentType" : 5126,
            "count" : 11952,
            "type" : "VEC3"
        },
        {
            "bufferView" : 22,
            "componentType" : 5123,
            "count" : 11952,
            "normalized" : true,
            "type" : "VEC4"
        },
        {
            "bufferView" : 23,
            "componentType" : 5126,
            "count" : 28966,
            "max" : [
                0.43085333704948425,
                1.4602420330047607,
                -0.2922865152359009
            ],
            "min" : [
                -0.03602339327335358,
                0.9819469451904297,
                -0.7096014618873596
            ],
            "type" : "VEC3"
        },
        {
            "bufferView" : 24,
            "componentType" : 5126,
            "count" : 28966,
            "type" : "VEC3"
        },
        {
            "bufferView" : 25,
            "componentType" : 5123,
            "count" : 28966,
            "normalized" : true,
            "type" : "VEC4"
        },
        {
            "bufferView" : 26,
            "componentType" : 5123,
            "count" : 138540,
            "type" : "SCALAR"
        },
        {
            "bufferView" : 27,
            "componentType" : 5126,
            "count" : 64,
            "max" : [
                0.3246822655200958,
                1.888440728187561,
                -0.28089436888694763
            ],
            "min" : [
                0.23117868602275848,
                1.8177326917648315,
                -0.3723747134208679
            ],
            "type" : "VEC3"
        },
        {
            "bufferView" : 28,
            "componentType" : 5126,
            "count" : 64,
            "type" : "VEC3"
        },
        {
            "bufferView" : 29,
            "componentType" : 5123,
            "count" : 64,
            "normalized" : true,
            "type" : "VEC4"
        },
        {
            "bufferView" : 30,
            "componentType" : 5123,
            "count" : 294,
            "type" : "SCALAR"
        }
    ],
    "bufferViews" : [
        {
            "buffer" : 0,
            "byteLength" : 99456,
            "byteOffset" : 0
        },
        {
            "buffer" : 0,
            "byteLength" : 99456,
            "byteOffset" : 99456
        },
        {
            "buffer" : 0,
            "byteLength" : 66304,
            "byteOffset" : 198912
        },
        {
            "buffer" : 0,
            "byteLength" : 85260,
            "byteOffset" : 265216
        },
        {
            "buffer" : 0,
            "byteLength" : 99456,
            "byteOffset" : 350476
        },
        {
            "buffer" : 0,
            "byteLength" : 99456,
            "byteOffset" : 449932
        },
        {
            "buffer" : 0,
            "byteLength" : 66304,
            "byteOffset" : 549388
        },
        {
            "buffer" : 0,
            "byteLength" : 85260,
            "byteOffset" : 615692
        },
        {
            "buffer" : 0,
            "byteLength" : 17280,
            "byteOffset" : 700952
        },
        {
            "buffer" : 0,
            "byteLength" : 17280,
            "byteOffset" : 718232
        },
        {
            "buffer" : 0,
            "byteLength" : 11520,
            "byteOffset" : 735512
        },
        {
            "buffer" : 0,
            "byteLength" : 11520,
            "byteOffset" : 747032
        },
        {
            "buffer" : 0,
            "byteLength" : 62976,
            "byteOffset" : 758552
        },
        {
            "buffer" : 0,
            "byteLength" : 62976,
            "byteOffset" : 821528
        },
        {
            "buffer" : 0,
            "byteLength" : 41984,
            "byteOffset" : 884504
        },
        {
            "buffer" : 0,
            "byteLength" : 50904,
            "byteOffset" : 926488
        },
        {
            "buffer" : 0,
            "byteLength" : 143424,
            "byteOffset" : 977392
        },
        {
            "buffer" : 0,
            "byteLength" : 143424,
            "byteOffset" : 1120816
        },
        {
            "buffer" : 0,
            "byteLength" : 95616,
            "byteOffset" : 1264240
        },
        {
            "buffer" : 0,
            "byteLength" : 118692,
            "byteOffset" : 1359856
        },
        {
            "buffer" : 0,
            "byteLength" : 143424,
            "byteOffset" : 1478548
        },
        {
            "buffer" : 0,
            "byteLength" : 143424,
            "byteOffset" : 1621972
        },
        {
            "buffer" : 0,
            "byteLength" : 95616,
            "byteOffset" : 1765396
        },
        {
            "buffer" : 0,
            "byteLength" : 347592,
            "byteOffset" : 1861012
        },
        {
            "buffer" : 0,
            "byteLength" : 347592,
            "byteOffset" : 2208604
        },
        {
            "buffer" : 0,
            "byteLength" : 231728,
            "byteOffset" : 2556196
        },
        {
            "buffer" : 0,
            "byteLength" : 277080,
            "byteOffset" : 2787924
        },
        {
            "buffer" : 0,
            "byteLength" : 768,
            "byteOffset" : 3065004
        },
        {
            "buffer" : 0,
            "byteLength" : 768,
            "byteOffset" : 3065772
        },
        {
            "buffer" : 0,
            "byteLength" : 512,
            "byteOffset" : 3066540
        },
        {
            "buffer" : 0,
            "byteLength" : 588,
            "byteOffset" : 3067052
        }
    ],
    "buffers" : [
        {
            "byteLength" : 3067640,
            "uri" : "data:application/octet-stream;base64,"
        }
    ]
}
